<svg width="19" height="19" viewBox="0 0 19 19" fill="none" xmlns="http://www.w3.org/2000/svg">
<g clip-path="url(#clip0_21_3381)">
<path d="M15.5787 18.3934C15.3093 18.3926 15.0427 18.3385 14.7943 18.2341C14.5459 18.1298 14.3207 17.9772 14.1316 17.7853L9.65272 13.3326L5.17383 17.7882C4.88618 18.08 4.51728 18.2784 4.11522 18.3575C3.71316 18.4367 3.29659 18.3928 2.91982 18.2317C2.5393 18.0786 2.21379 17.8144 1.98577 17.4735C1.75776 17.1326 1.63784 16.7308 1.64169 16.3207V4.55614C1.64169 3.59039 2.02534 2.66419 2.70823 1.9813C3.39112 1.29841 4.31732 0.914764 5.28307 0.914764L14.0224 0.914764C14.5006 0.914764 14.9741 1.00895 15.4159 1.19195C15.8577 1.37494 16.2591 1.64317 16.5972 1.9813C16.9354 2.31943 17.2036 2.72085 17.3866 3.16265C17.5696 3.60444 17.6638 4.07795 17.6638 4.55614V16.3207C17.6678 16.7305 17.5483 17.132 17.3209 17.4729C17.0934 17.8138 16.7685 18.0782 16.3885 18.2317C16.1321 18.339 15.8567 18.3939 15.5787 18.3934ZM5.28307 2.37132C4.70362 2.37132 4.1479 2.6015 3.73816 3.01124C3.32843 3.42097 3.09824 3.97669 3.09824 4.55614V16.3207C3.09798 16.4421 3.13369 16.5608 3.20086 16.6618C3.26803 16.7629 3.36364 16.8418 3.47563 16.8886C3.58761 16.9353 3.71095 16.9478 3.83004 16.9246C3.94914 16.9013 4.05866 16.8432 4.14477 16.7577L9.14293 11.7901C9.27938 11.6545 9.46396 11.5783 9.65636 11.5783C9.84876 11.5783 10.0333 11.6545 10.1698 11.7901L15.1621 16.7562C15.2482 16.8417 15.3578 16.8998 15.4769 16.9231C15.596 16.9464 15.7193 16.9339 15.8313 16.8871C15.9433 16.8404 16.0389 16.7615 16.106 16.6604C16.1732 16.5593 16.2089 16.4406 16.2087 16.3192V4.55614C16.2087 3.97669 15.9785 3.42097 15.5687 3.01124C15.159 2.6015 14.6033 2.37132 14.0238 2.37132H5.28307Z" fill="#787878"/>
</g>
<defs>
<clipPath id="clip0_21_3381">
<rect width="17.4786" height="17.4786" fill="white" transform="translate(0.913086 0.916367)"/>
</clipPath>
</defs>
</svg>
