<svg width="55" height="56" viewBox="0 0 55 56" fill="none" xmlns="http://www.w3.org/2000/svg">
<g filter="url(#filter0_d_16_669)">
<rect x="10" y="6" width="34.9572" height="36" rx="8" fill="white" shape-rendering="crispEdges"/>
<rect x="10.4855" y="6.48552" width="33.9862" height="35.029" rx="7.51448" stroke="#F1F1F5" stroke-width="0.971034" shape-rendering="crispEdges"/>
<mask id="mask0_16_669" style="mask-type:alpha" maskUnits="userSpaceOnUse" x="15" y="11" width="25" height="25">
<rect x="15.8262" y="11.8276" width="23.3048" height="23.3048" fill="#D9D9D9"/>
</mask>
<g mask="url(#mask0_16_669)">
</g>
<g clip-path="url(#clip0_16_669)">
<path d="M20 16.9963C20 16.4441 20.4477 15.9963 21 15.9963H34C34.5523 15.9963 35 16.4441 35 16.9963V30.1765C35 30.6532 34.6635 31.0636 34.1961 31.1571L33.0248 31.3914C32.6969 31.457 32.358 31.3543 32.1216 31.1179L28.2071 27.2034C27.8166 26.8129 27.1834 26.8129 26.7929 27.2034L22.8784 31.1179C22.642 31.3543 22.3031 31.457 21.9752 31.3914L20.8039 31.1571C20.3365 31.0636 20 30.6532 20 30.1765V16.9963Z" fill="#51BA85"/>
<path d="M33.4049 32.2193C33.1355 32.2186 32.8689 32.1645 32.6205 32.0601C32.3721 31.9557 32.1469 31.8032 31.9578 31.6112L27.4789 27.1585L23 31.6141C22.7124 31.906 22.3435 32.1044 21.9414 32.1835C21.5393 32.2626 21.1228 32.2188 20.746 32.0577C20.3655 31.9046 20.04 31.6404 19.8119 31.2995C19.5839 30.9585 19.464 30.5568 19.4679 30.1467V18.3821C19.4679 17.4163 19.8515 16.4901 20.5344 15.8073C21.2173 15.1244 22.1435 14.7407 23.1092 14.7407H31.8485C32.3267 14.7407 32.8003 14.8349 33.242 15.0179C33.6838 15.2009 34.0853 15.4691 34.4234 15.8073C34.7615 16.1454 35.0297 16.5468 35.2127 16.9886C35.3957 17.4304 35.4899 17.9039 35.4899 18.3821V30.1467C35.494 30.5564 35.3745 30.958 35.1471 31.2988C34.9196 31.6397 34.5947 31.9041 34.2147 32.0577C33.9582 32.1649 33.6829 32.2199 33.4049 32.2193ZM23.1092 16.1973C22.5298 16.1973 21.9741 16.4275 21.5643 16.8372C21.1546 17.2469 20.9244 17.8026 20.9244 18.3821V30.1467C20.9242 30.268 20.9599 30.3867 21.027 30.4878C21.0942 30.5889 21.1898 30.6678 21.3018 30.7145C21.4138 30.7613 21.5371 30.7738 21.6562 30.7505C21.7753 30.7272 21.8848 30.6691 21.9709 30.5836L26.9691 25.6161C27.1056 25.4804 27.2901 25.4043 27.4825 25.4043C27.6749 25.4043 27.8595 25.4804 27.996 25.6161L32.9883 30.5822C33.0744 30.6677 33.1839 30.7258 33.303 30.7491C33.4221 30.7724 33.5455 30.7598 33.6574 30.7131C33.7694 30.6663 33.865 30.5874 33.9322 30.4863C33.9994 30.3853 34.0351 30.2666 34.0348 30.1452V18.3821C34.0348 17.8026 33.8046 17.2469 33.3949 16.8372C32.9852 16.4275 32.4295 16.1973 31.85 16.1973H23.1092Z" fill="#51BA85"/>
</g>
</g>
<defs>
<filter id="filter0_d_16_669" x="0" y="0" width="54.957" height="56" filterUnits="userSpaceOnUse" color-interpolation-filters="sRGB">
<feFlood flood-opacity="0" result="BackgroundImageFix"/>
<feColorMatrix in="SourceAlpha" type="matrix" values="0 0 0 0 0 0 0 0 0 0 0 0 0 0 0 0 0 0 127 0" result="hardAlpha"/>
<feOffset dy="4"/>
<feGaussianBlur stdDeviation="5"/>
<feComposite in2="hardAlpha" operator="out"/>
<feColorMatrix type="matrix" values="0 0 0 0 0 0 0 0 0 0 0 0 0 0 0 0 0 0 0.1 0"/>
<feBlend mode="normal" in2="BackgroundImageFix" result="effect1_dropShadow_16_669"/>
<feBlend mode="normal" in="SourceGraphic" in2="effect1_dropShadow_16_669" result="shape"/>
</filter>
<clipPath id="clip0_16_669">
<rect width="17.4786" height="17.4786" fill="white" transform="translate(18.7393 14.7424)"/>
</clipPath>
</defs>
</svg>
