<svg width="47" height="48" viewBox="0 0 47 48" fill="none" xmlns="http://www.w3.org/2000/svg">
<rect x="0.647356" y="0.647356" width="45.3149" height="46.7053" rx="10.0193" fill="white"/>
<rect x="0.647356" y="0.647356" width="45.3149" height="46.7053" rx="10.0193" stroke="#F1F1F5" stroke-width="1.29471"/>
<mask id="mask0_264_492" style="mask-type:alpha" maskUnits="userSpaceOnUse" x="7" y="7" width="32" height="32">
<rect x="7.76855" y="7.77011" width="31.0731" height="31.0731" fill="#D9D9D9"/>
</mask>
<g mask="url(#mask0_264_492)">
</g>
<g clip-path="url(#clip0_264_492)">
<path d="M14 14C14 13.4477 14.4477 13 15 13H32C32.5523 13 33 13.4477 33 14V32.7686C33 33.6321 31.9791 34.0897 31.3345 33.515L24.6575 27.5614C24.2937 27.2371 23.7492 27.2222 23.3683 27.5261L15.6236 33.7047C14.9687 34.2272 14 33.7609 14 32.923V14Z" fill="#51BA85"/>
<path d="M31.2058 34.9595C30.8466 34.9585 30.4912 34.8863 30.16 34.7472C29.8288 34.608 29.5285 34.4046 29.2764 34.1487L23.3045 28.2118L17.3327 34.1525C16.9492 34.5417 16.4573 34.8062 15.9212 34.9117C15.3851 35.0172 14.8297 34.9587 14.3273 34.7439C13.82 34.5398 13.386 34.1875 13.0819 33.733C12.7779 33.2784 12.618 32.7427 12.6232 32.1959V16.5098C12.6232 15.2222 13.1347 13.9872 14.0452 13.0767C14.9557 12.1662 16.1907 11.6547 17.4783 11.6547H29.1307C29.7683 11.6547 30.3997 11.7802 30.9887 12.0242C31.5778 12.2682 32.113 12.6259 32.5639 13.0767C33.0147 13.5276 33.3723 14.0628 33.6163 14.6518C33.8603 15.2409 33.9859 15.8722 33.9859 16.5098V32.1959C33.9914 32.7423 33.832 33.2776 33.5287 33.7321C33.2255 34.1866 32.7923 34.5392 32.2856 34.7439C31.9436 34.8869 31.5765 34.9602 31.2058 34.9595ZM17.4783 13.5967C16.7057 13.5967 15.9648 13.9036 15.4185 14.45C14.8721 14.9963 14.5652 15.7372 14.5652 16.5098V32.1959C14.5649 32.3577 14.6125 32.516 14.7021 32.6508C14.7916 32.7855 14.9191 32.8907 15.0684 32.9531C15.2177 33.0154 15.3822 33.0321 15.541 33.001C15.6998 32.97 15.8458 32.8925 15.9606 32.7785L22.6248 26.1551C22.8068 25.9743 23.0529 25.8727 23.3094 25.8727C23.5659 25.8727 23.812 25.9743 23.994 26.1551L30.6504 32.7766C30.7652 32.8906 30.9113 32.968 31.0701 32.9991C31.2289 33.0302 31.3933 33.0135 31.5426 32.9511C31.6919 32.8888 31.8194 32.7836 31.909 32.6488C31.9985 32.5141 32.0461 32.3558 32.0458 32.194V16.5098C32.0458 15.7372 31.7389 14.9963 31.1926 14.45C30.6462 13.9036 29.9053 13.5967 29.1327 13.5967H17.4783Z" fill="#51BA85"/>
</g>
<defs>
<clipPath id="clip0_264_492">
<rect width="23.3048" height="23.3048" fill="white" transform="translate(11.6523 11.6568)"/>
</clipPath>
</defs>
</svg>
