<svg width="29" height="28" viewBox="0 0 29 28" fill="none" xmlns="http://www.w3.org/2000/svg">
<path d="M24.4998 10.2495H13.25C11.8693 10.2495 10.75 11.3688 10.75 12.7495V23.9993C10.75 25.38 11.8693 26.4993 13.25 26.4993H24.4998C25.8805 26.4993 26.9998 25.38 26.9998 23.9993V12.7495C26.9998 11.3688 25.8805 10.2495 24.4998 10.2495Z" stroke="white" stroke-width="2.2727" stroke-linecap="round" stroke-linejoin="round"/>
<path d="M5.74996 17.7504H4.49997C3.83694 17.7504 3.20106 17.487 2.73222 17.0182C2.26339 16.5494 2 15.9135 2 15.2504V4.00058C2 3.33755 2.26339 2.70167 2.73222 2.23283C3.20106 1.764 3.83694 1.50061 4.49997 1.50061H15.7498C16.4129 1.50061 17.0487 1.764 17.5176 2.23283C17.9864 2.70167 18.2498 3.33755 18.2498 4.00058V5.25057" stroke="white" stroke-width="2.2727" stroke-linecap="round" stroke-linejoin="round"/>
</svg>
