<svg width="19" height="19" viewBox="0 0 19 19" fill="none" xmlns="http://www.w3.org/2000/svg">
<g clip-path="url(#clip0_324_2581)">
<path d="M15.5797 18.3934C15.3103 18.3927 15.0437 18.3385 14.7953 18.2342C14.5469 18.1298 14.3217 17.9772 14.1326 17.7853L9.6537 13.3326L5.1748 17.7882C4.88716 18.08 4.51826 18.2785 4.1162 18.3576C3.71413 18.4367 3.29756 18.3928 2.92079 18.2317C2.54028 18.0787 2.21476 17.8144 1.98675 17.4735C1.75873 17.1326 1.63882 16.7309 1.64267 16.3207V4.55617C1.64267 3.59042 2.02631 2.66422 2.7092 1.98133C3.39209 1.29844 4.31829 0.914795 5.28405 0.914795L14.0234 0.914795C14.5015 0.914795 14.9751 1.00898 15.4168 1.19198C15.8586 1.37497 16.2601 1.6432 16.5982 1.98133C16.9363 2.31946 17.2046 2.72089 17.3875 3.16268C17.5705 3.60447 17.6647 4.07798 17.6647 4.55617V16.3207C17.6688 16.7305 17.5493 17.132 17.3219 17.4729C17.0944 17.8138 16.7695 18.0782 16.3895 18.2317C16.133 18.339 15.8577 18.394 15.5797 18.3934ZM5.28405 2.37135C4.70459 2.37135 4.14887 2.60153 3.73914 3.01127C3.32941 3.421 3.09922 3.97672 3.09922 4.55617V16.3207C3.09896 16.4421 3.13466 16.5608 3.20183 16.6619C3.269 16.7629 3.36462 16.8418 3.4766 16.8886C3.58859 16.9354 3.71192 16.9479 3.83102 16.9246C3.95012 16.9013 4.05964 16.8432 4.14575 16.7577L9.14391 11.7901C9.28036 11.6545 9.46494 11.5784 9.65734 11.5784C9.84974 11.5784 10.0343 11.6545 10.1708 11.7901L15.1631 16.7562C15.2492 16.8418 15.3587 16.8998 15.4778 16.9231C15.5969 16.9464 15.7203 16.9339 15.8323 16.8871C15.9442 16.8404 16.0399 16.7615 16.107 16.6604C16.1742 16.5593 16.2099 16.4406 16.2096 16.3193V4.55617C16.2096 3.97672 15.9795 3.421 15.5697 3.01127C15.16 2.60153 14.6043 2.37135 14.0248 2.37135H5.28405Z" fill="#787878"/>
</g>
<defs>
<clipPath id="clip0_324_2581">
<rect width="17.4786" height="17.4786" fill="white" transform="translate(0.914062 0.916382)"/>
</clipPath>
</defs>
</svg>
