<svg width="49" height="49" viewBox="0 0 49 49" fill="none" xmlns="http://www.w3.org/2000/svg">
<g id="Group">
<path id="Vector" d="M24.2219 0.821106H24.1126C10.8921 0.821106 0.174805 11.5416 0.174805 24.766V24.8753C0.174805 38.0997 10.8921 48.8202 24.1126 48.8202H24.2219C37.4425 48.8202 48.1598 38.0997 48.1598 24.8753V24.766C48.1598 11.5416 37.4425 0.821106 24.2219 0.821106Z" fill="#00B0F2"/>
<path id="Vector_2" d="M9.26345 24.0028C9.33069 23.9692 9.39797 23.9372 9.46354 23.9069C10.6034 23.3789 11.7583 22.8845 12.9116 22.3901C12.9738 22.3901 13.078 22.3178 13.1368 22.2942C13.2259 22.2556 13.315 22.2186 13.4041 22.1799L13.9169 21.9596C14.2598 21.8133 14.6011 21.667 14.9441 21.5207C15.6283 21.2281 16.3125 20.9355 16.9967 20.6412C18.3652 20.056 19.7353 19.4691 21.1038 18.8839C22.4723 18.2987 23.8424 17.7118 25.2108 17.1266C26.5793 16.5413 27.9494 15.9545 29.3179 15.3692C30.6863 14.784 32.0565 14.1971 33.4249 13.6119C33.7292 13.4808 34.0587 13.2857 34.3849 13.2285C34.6589 13.1797 34.9262 13.0856 35.2019 13.0334C35.7247 12.9342 36.3014 12.8939 36.8023 13.1108C36.9755 13.1865 37.1352 13.2924 37.268 13.4253C37.9035 14.0542 37.8144 15.0867 37.6799 15.9713C36.7435 22.1362 35.8071 28.3028 34.869 34.4677C34.7412 35.3135 34.5664 36.2418 33.899 36.7766C33.3341 37.2289 32.5305 37.2794 31.8329 37.0877C31.1352 36.8943 30.5199 36.489 29.9164 36.0904C27.4131 34.4323 24.9082 32.7742 22.405 31.1161C21.8099 30.7226 21.1475 30.2081 21.1542 29.4934C21.1576 29.0629 21.4148 28.6794 21.6771 28.3381C23.8525 25.4995 26.9912 23.5488 29.3263 20.8413C29.6558 20.4596 29.9147 19.7701 29.4625 19.5498C29.1935 19.4186 28.8841 19.5969 28.6387 19.7667C25.5521 21.9108 22.4672 24.0566 19.3806 26.2007C18.3736 26.9003 17.3179 27.62 16.1041 27.7915C15.018 27.9462 13.9253 27.6436 12.8746 27.3341C11.9937 27.0752 11.1144 26.8095 10.2385 26.5354C9.77284 26.3907 9.29203 26.2343 8.93227 25.9064C8.5725 25.5785 8.36575 25.0269 8.58262 24.5897C8.71879 24.3156 8.98273 24.1424 9.26012 24.0011L9.26345 24.0028Z" fill="#FEFFFC"/>
</g>
</svg>
