<svg width="49" height="49" viewBox="0 0 49 49" fill="none" xmlns="http://www.w3.org/2000/svg">
<g id="Group">
<path id="Vector" d="M48.2333 24.8215C48.2333 36.9428 39.2509 46.9637 27.5821 48.5898C26.491 48.7412 25.3747 48.8202 24.2416 48.8202C22.9337 48.8202 21.6493 48.7159 20.3985 48.5141C8.97515 46.6744 0.25 36.7662 0.25 24.8215C0.25 11.5668 10.9925 0.821075 24.2433 0.821075C37.4941 0.821075 48.2367 11.5668 48.2367 24.8215H48.2333Z" fill="#1C1C1B"/>
<g id="layer1">
<path id="path1009" d="M9.98104 11.4048L21.0463 26.2032L9.91211 38.2354H12.4187L22.1677 27.7016L30.0438 38.2354H38.5723L26.885 22.6045L37.2492 11.4048H34.7426L25.7653 21.1062L18.5112 11.4048H9.9827H9.98104ZM13.6661 13.2512H17.5832L34.8839 36.389H30.9668L13.6661 13.2512Z" fill="white"/>
</g>
</g>
</svg>
