<svg width="24" height="25" viewBox="0 0 24 25" fill="none" xmlns="http://www.w3.org/2000/svg">
<path fill-rule="evenodd" clip-rule="evenodd" d="M8.75 6.30481C8.75 4.50988 10.2051 3.05481 12 3.05481C13.7949 3.05481 15.25 4.50988 15.25 6.30481C15.25 8.09973 13.7949 9.55481 12 9.55481C10.2051 9.55481 8.75 8.09973 8.75 6.30481ZM12 1.55481C9.37665 1.55481 7.25 3.68146 7.25 6.30481C7.25 8.92816 9.37665 11.0548 12 11.0548C14.6234 11.0548 16.75 8.92816 16.75 6.30481C16.75 3.68146 14.6234 1.55481 12 1.55481ZM8.8 13.5548C5.73482 13.5548 3.25 16.0396 3.25 19.1048C3.25 21.2863 5.01848 23.0548 7.2 23.0548H16.8C18.9815 23.0548 20.75 21.2863 20.75 19.1048C20.75 16.0396 18.2652 13.5548 15.2 13.5548H8.8ZM4.75 19.1048C4.75 16.8681 6.56325 15.0548 8.8 15.0548H15.2C17.4368 15.0548 19.25 16.8681 19.25 19.1048C19.25 20.4579 18.1531 21.5548 16.8 21.5548H7.2C5.8469 21.5548 4.75 20.4579 4.75 19.1048Z" fill="#787878"/>
</svg>
