<svg width="48" height="49" viewBox="0 0 48 49" fill="none" xmlns="http://www.w3.org/2000/svg">
<g id="Group 89">
<g id="Group 88">
<ellipse id="Ellipse 13" cx="24" cy="24.8206" rx="24" ry="24" fill="#65D072"/>
<g id="Group 87">
<path id="Vector" d="M11.0771 37.7419L12.933 30.8529C11.4363 28.1693 10.9608 25.0378 11.5937 22.0329C12.2267 19.0281 13.9256 16.3515 16.3788 14.4943C18.832 12.6372 21.8749 11.724 24.9492 11.9224C28.0234 12.1208 30.9227 13.4175 33.1151 15.5745C35.3075 17.7314 36.6459 20.604 36.8848 23.6651C37.1236 26.7262 36.2468 29.7705 34.4153 32.2393C32.5838 34.7081 29.9205 36.4359 26.914 37.1055C23.9075 37.7752 20.7595 37.3418 18.0477 35.8849L11.0771 37.7419ZM18.3838 33.307L18.8149 33.5619C20.7791 34.7222 23.0733 35.2024 25.3399 34.9276C27.6065 34.6527 29.7182 33.6384 31.3459 32.0425C32.9737 30.4467 34.026 28.359 34.339 26.1048C34.652 23.8506 34.208 21.5566 33.0762 19.5802C31.9444 17.6037 30.1884 16.056 28.0819 15.178C25.9753 14.3001 23.6366 14.1413 21.43 14.7265C19.2235 15.3116 17.2732 16.6078 15.8829 18.413C14.4927 20.2182 13.7407 22.4311 13.7441 24.7067C13.7422 26.5936 14.2658 28.444 15.2566 30.0519L15.5269 30.4961L14.4894 34.3411L18.3838 33.307Z" fill="white"/>
<path id="Vector_2" fill-rule="evenodd" clip-rule="evenodd" d="M28.9357 26.6159C28.6721 26.4194 28.3634 26.2811 28.0332 26.2115C27.703 26.142 27.36 26.1429 27.0303 26.2144C26.5348 26.4046 26.2147 27.1229 25.8946 27.4821C25.8271 27.5682 25.7279 27.6286 25.6157 27.652C25.5034 27.6753 25.3858 27.66 25.2849 27.6089C23.4711 26.9525 21.9508 25.7487 20.9709 24.1931C20.8873 24.096 20.8478 23.9728 20.8606 23.8493C20.8734 23.7258 20.9375 23.6117 21.0395 23.5311C21.3965 23.2045 21.6587 22.7999 21.8017 22.3549C21.8334 21.864 21.7117 21.3751 21.4511 20.9463C21.2496 20.3452 20.8661 19.81 20.3459 19.4039C20.0776 19.2924 19.7802 19.255 19.4894 19.2963C19.1986 19.3375 18.927 19.4556 18.7072 19.6363C18.3257 19.9405 18.0229 20.3198 17.8211 20.7464C17.6193 21.173 17.5236 21.636 17.5411 22.1014C17.5423 22.3627 17.5781 22.6228 17.6478 22.8761C17.8248 23.4845 18.097 24.0658 18.4557 24.6016C18.7145 25.012 18.997 25.4093 19.3017 25.7918C20.2922 27.0483 21.5373 28.1151 22.9678 28.933C23.6857 29.3486 24.4529 29.6865 25.2544 29.9401C26.0869 30.2888 27.0061 30.4227 27.9144 30.3275C28.4319 30.2551 28.9222 30.0663 29.3422 29.7777C29.7622 29.4891 30.0989 29.1095 30.3229 28.6724C30.4545 28.4083 30.4944 28.1131 30.4372 27.8272C30.3 27.2427 29.454 26.8976 28.9357 26.6159Z" fill="white"/>
</g>
</g>
</g>
</svg>
