<svg width="186" height="38" viewBox="0 0 186 38" fill="none" xmlns="http://www.w3.org/2000/svg">
<path fill-rule="evenodd" clip-rule="evenodd" d="M47.8687 25.1692C47.8206 23.7964 47.6234 22.4311 47.2948 21.0937C47.2948 21.0887 47.2922 21.0811 47.2897 21.076C47.2265 20.8156 47.1557 20.5577 47.0824 20.3024C47.0799 20.2898 47.0748 20.2796 47.0723 20.267C46.999 20.0142 46.9206 19.7614 46.8397 19.5111C46.8346 19.4984 46.8321 19.4833 46.8271 19.4706C46.7436 19.2203 46.6577 18.9726 46.5641 18.7248C46.5591 18.7122 46.554 18.6995 46.549 18.6843C46.4554 18.4366 46.3593 18.1888 46.2582 17.9461C46.2532 17.936 46.2506 17.9259 46.2456 17.9158C46.1419 17.668 46.0332 17.4203 45.922 17.1775C45.922 17.1725 45.9169 17.17 45.9169 17.1649C45.4568 16.1663 44.9208 15.198 44.3216 14.2752C44.3166 14.2676 44.3115 14.26 44.3064 14.2524C44.1623 14.0325 44.0157 13.815 43.864 13.5976C43.8539 13.5825 43.8438 13.5673 43.8311 13.5521C43.682 13.3423 43.5303 13.135 43.3761 12.9302C43.3609 12.91 43.3457 12.8923 43.3331 12.872C43.1789 12.6698 43.0221 12.4726 42.8628 12.2754C42.8451 12.2552 42.8274 12.2324 42.8123 12.2122C42.653 12.0175 42.4887 11.8254 42.3243 11.6383C42.3066 11.618 42.2864 11.5978 42.2687 11.5751C42.1019 11.3855 41.9325 11.2009 41.758 11.0189C41.7403 11.0012 41.7226 10.9809 41.7049 10.9632C41.528 10.7787 41.351 10.5967 41.169 10.4197C41.1538 10.4045 41.1411 10.3919 41.126 10.3792C40.9389 10.1972 40.7493 10.0177 40.5571 9.84326C40.5495 9.83567 40.542 9.82809 40.5318 9.8205C40.1324 9.4615 39.7228 9.11513 39.3006 8.78647C39.2905 8.77889 39.2829 8.7713 39.2728 8.76372C39.0706 8.60697 38.8632 8.45528 38.6559 8.30358C38.6357 8.29094 38.618 8.27577 38.5978 8.26061C38.3955 8.1165 38.1907 7.97745 37.9834 7.84093C37.9581 7.82323 37.9303 7.80553 37.9051 7.79036C37.7003 7.65637 37.4955 7.52996 37.2882 7.40355C37.2578 7.38585 37.2275 7.36562 37.1972 7.34793C36.9898 7.22405 36.7825 7.10522 36.5702 6.99145C36.5373 6.97375 36.5044 6.95606 36.4716 6.93836C36.2617 6.82459 36.0468 6.71335 35.8319 6.60717C35.7991 6.592 35.7662 6.5743 35.7333 6.55913C35.5159 6.45295 35.2985 6.35182 35.076 6.25322C35.0457 6.24058 35.0153 6.22794 34.985 6.21277C34.76 6.11417 34.5324 6.02063 34.3049 5.93214C34.2796 5.92203 34.2543 5.91191 34.2291 5.90433C33.9939 5.81331 33.7563 5.72736 33.5186 5.64645C33.5035 5.6414 33.4858 5.63634 33.4706 5.63128C33.2203 5.54785 32.97 5.46948 32.7172 5.39616C31.0081 4.90316 29.0109 4.80709 26.8948 5.07761C26.8948 5.07761 26.8922 5.07761 26.8897 5.07761C17.8944 6.22794 6.75012 14.0401 6.39111 26.5673H47.8687C47.8864 26.0995 47.8864 25.6344 47.8687 25.1692Z" fill="white"/>
<path fill-rule="evenodd" clip-rule="evenodd" d="M27.9694 2.73646C40.2159 4.14214 49.593 14.5482 49.593 27.0097C49.593 27.8541 48.9104 28.5367 48.066 28.5367H2.23992C1.3955 28.5367 0.712891 27.8541 0.712891 27.0097C0.712891 14.5482 10.09 4.14214 22.3391 2.73646C22.382 0.989482 23.7801 0.0338244 25.1732 0.000957904C26.5485 -0.0319086 27.9188 0.83779 27.9694 2.73394V2.73646ZM40.6963 12.3183C27.4435 -1.70052 5.09172 7.48694 3.82257 25.4826H46.4833C46.1243 20.3959 43.9905 15.8047 40.6963 12.3183Z" fill="#222222"/>
<path d="M48.779 31.1306H1.52703C0.683674 31.1306 0 31.8142 0 32.6576C0 33.5009 0.683674 34.1846 1.52703 34.1846H48.779C49.6223 34.1846 50.306 33.5009 50.306 32.6576C50.306 31.8142 49.6223 31.1306 48.779 31.1306Z" fill="#222222"/>
<path d="M60.7718 16.1369C62.224 16.1369 63.493 16.4247 64.5788 17.0004C65.6647 17.576 66.502 18.3871 67.0907 19.4337C67.6925 20.4672 67.9934 21.6643 67.9934 23.0249C67.9934 24.3724 67.6925 25.5694 67.0907 26.616C66.502 27.6626 65.6581 28.4738 64.5592 29.0494C63.4733 29.625 62.2109 29.9128 60.7718 29.9128H55.6107V16.1369H60.7718ZM60.5559 27.0085C61.8249 27.0085 62.8127 26.6618 63.5191 25.9684C64.2256 25.2751 64.5788 24.2939 64.5788 23.0249C64.5788 21.7559 64.2256 20.7681 63.5191 20.0617C62.8127 19.3552 61.8249 19.002 60.5559 19.002H58.9664V27.0085H60.5559ZM69.2015 24.4182C69.2015 23.2931 69.4108 22.3053 69.8294 21.455C70.2611 20.6046 70.8433 19.9505 71.5759 19.4926C72.3086 19.0347 73.1262 18.8057 74.0289 18.8057C74.8008 18.8057 75.4745 18.9627 76.0502 19.2767C76.6389 19.5907 77.0902 20.0028 77.4042 20.513V18.9627H80.7599V29.9128H77.4042V28.3626C77.0772 28.8728 76.6193 29.2849 76.0306 29.5989C75.4549 29.9128 74.7812 30.0698 74.0093 30.0698C73.1197 30.0698 72.3086 29.8409 71.5759 29.383C70.8433 28.912 70.2611 28.2514 69.8294 27.401C69.4108 26.5375 69.2015 25.5433 69.2015 24.4182ZM77.4042 24.4378C77.4042 23.6005 77.1687 22.9398 76.6978 22.4558C76.2399 21.9717 75.6773 21.7297 75.0101 21.7297C74.3429 21.7297 73.7738 21.9717 73.3028 22.4558C72.845 22.9268 72.616 23.5809 72.616 24.4182C72.616 25.2554 72.845 25.9227 73.3028 26.4198C73.7738 26.9039 74.3429 27.1459 75.0101 27.1459C75.6773 27.1459 76.2399 26.9039 76.6978 26.4198C77.1687 25.9357 77.4042 25.2751 77.4042 24.4378ZM84.8752 17.8246C84.2865 17.8246 83.8025 17.6545 83.4231 17.3143C83.0568 16.9611 82.8736 16.5294 82.8736 16.0192C82.8736 15.4959 83.0568 15.0641 83.4231 14.724C83.8025 14.3708 84.2865 14.1941 84.8752 14.1941C85.4509 14.1941 85.9218 14.3708 86.2882 14.724C86.6675 15.0641 86.8572 15.4959 86.8572 16.0192C86.8572 16.5294 86.6675 16.9611 86.2882 17.3143C85.9218 17.6545 85.4509 17.8246 84.8752 17.8246ZM86.5433 18.9627V29.9128H83.1876V18.9627H86.5433ZM92.3308 15.3912V29.9128H88.9751V15.3912H92.3308ZM105.948 18.9627L99.0798 35.1132H95.469L97.9809 29.54L93.5263 18.9627H97.2744L99.8059 25.8115L102.318 18.9627H105.948Z" fill="#222222"/>
<path d="M114.187 29.9128L111.322 24.7125H110.517V29.9128H107.162V16.1369H112.794C113.88 16.1369 114.802 16.3266 115.561 16.706C116.333 17.0854 116.908 17.6087 117.288 18.2759C117.667 18.93 117.857 19.6627 117.857 20.4738C117.857 21.3896 117.595 22.2072 117.072 22.9268C116.561 23.6463 115.803 24.1565 114.795 24.4574L117.974 29.9128H114.187ZM110.517 22.338H112.597C113.212 22.338 113.67 22.1876 113.971 21.8867C114.285 21.5858 114.442 21.1606 114.442 20.6111C114.442 20.0878 114.285 19.6757 113.971 19.3748C113.67 19.0739 113.212 18.9235 112.597 18.9235H110.517V22.338ZM130.285 24.2612C130.285 24.5752 130.266 24.9022 130.226 25.2424H122.632C122.684 25.9227 122.9 26.446 123.28 26.8123C123.672 27.1655 124.15 27.3421 124.712 27.3421C125.549 27.3421 126.132 26.9889 126.459 26.2824H130.03C129.847 27.002 129.513 27.6496 129.029 28.2252C128.558 28.8008 127.963 29.2522 127.244 29.5792C126.524 29.9063 125.719 30.0698 124.83 30.0698C123.757 30.0698 122.802 29.8409 121.965 29.383C121.127 28.9251 120.473 28.271 120.002 27.4206C119.531 26.5702 119.296 25.576 119.296 24.4378C119.296 23.2996 119.525 22.3053 119.983 21.455C120.454 20.6046 121.108 19.9505 121.945 19.4926C122.782 19.0347 123.744 18.8057 124.83 18.8057C125.89 18.8057 126.831 19.0282 127.656 19.473C128.48 19.9178 129.121 20.5523 129.579 21.3765C130.05 22.2007 130.285 23.1622 130.285 24.2612ZM126.851 23.3781C126.851 22.8025 126.655 22.3446 126.262 22.0044C125.87 21.6643 125.379 21.4942 124.791 21.4942C124.228 21.4942 123.751 21.6577 123.358 21.9848C122.979 22.3119 122.743 22.7763 122.652 23.3781H126.851ZM131.388 24.4378C131.388 23.2996 131.617 22.3053 132.075 21.455C132.546 20.6046 133.194 19.9505 134.018 19.4926C134.855 19.0347 135.81 18.8057 136.883 18.8057C138.257 18.8057 139.401 19.1655 140.317 19.8851C141.246 20.6046 141.854 21.6185 142.142 22.9268H138.571C138.27 22.0895 137.688 21.6708 136.824 21.6708C136.209 21.6708 135.719 21.9129 135.352 22.3969C134.986 22.8679 134.803 23.5482 134.803 24.4378C134.803 25.3274 134.986 26.0142 135.352 26.4983C135.719 26.9693 136.209 27.2048 136.824 27.2048C137.688 27.2048 138.27 26.7861 138.571 25.9488H142.142C141.854 27.2309 141.246 28.2383 140.317 28.9709C139.388 29.7035 138.244 30.0698 136.883 30.0698C135.81 30.0698 134.855 29.8409 134.018 29.383C133.194 28.9251 132.546 28.271 132.075 27.4206C131.617 26.5702 131.388 25.576 131.388 24.4378ZM145.625 17.8246C145.036 17.8246 144.552 17.6545 144.173 17.3143C143.806 16.9611 143.623 16.5294 143.623 16.0192C143.623 15.4959 143.806 15.0641 144.173 14.724C144.552 14.3708 145.036 14.1941 145.625 14.1941C146.2 14.1941 146.671 14.3708 147.038 14.724C147.417 15.0641 147.607 15.4959 147.607 16.0192C147.607 16.5294 147.417 16.9611 147.038 17.3143C146.671 17.6545 146.2 17.8246 145.625 17.8246ZM147.293 18.9627V29.9128H143.937V18.9627H147.293ZM153.08 20.513C153.407 20.0028 153.859 19.5907 154.434 19.2767C155.01 18.9627 155.684 18.8057 156.456 18.8057C157.358 18.8057 158.176 19.0347 158.909 19.4926C159.641 19.9505 160.217 20.6046 160.636 21.455C161.067 22.3053 161.283 23.2931 161.283 24.4182C161.283 25.5433 161.067 26.5375 160.636 27.401C160.217 28.2514 159.641 28.912 158.909 29.383C158.176 29.8409 157.358 30.0698 156.456 30.0698C155.697 30.0698 155.023 29.9128 154.434 29.5989C153.859 29.2849 153.407 28.8793 153.08 28.3822V35.1328H149.725V18.9627H153.08V20.513ZM157.869 24.4182C157.869 23.5809 157.633 22.9268 157.162 22.4558C156.704 21.9717 156.135 21.7297 155.455 21.7297C154.788 21.7297 154.219 21.9717 153.748 22.4558C153.29 22.9398 153.061 23.6005 153.061 24.4378C153.061 25.2751 153.29 25.9357 153.748 26.4198C154.219 26.9039 154.788 27.1459 155.455 27.1459C156.122 27.1459 156.691 26.9039 157.162 26.4198C157.633 25.9227 157.869 25.2554 157.869 24.4182ZM173.366 24.2612C173.366 24.5752 173.346 24.9022 173.307 25.2424H165.712C165.765 25.9227 165.981 26.446 166.36 26.8123C166.752 27.1655 167.23 27.3421 167.793 27.3421C168.63 27.3421 169.212 26.9889 169.539 26.2824H173.111C172.927 27.002 172.594 27.6496 172.11 28.2252C171.639 28.8008 171.044 29.2522 170.324 29.5792C169.604 29.9063 168.8 30.0698 167.91 30.0698C166.838 30.0698 165.883 29.8409 165.045 29.383C164.208 28.9251 163.554 28.271 163.083 27.4206C162.612 26.5702 162.376 25.576 162.376 24.4378C162.376 23.2996 162.605 22.3053 163.063 21.455C163.534 20.6046 164.188 19.9505 165.026 19.4926C165.863 19.0347 166.824 18.8057 167.91 18.8057C168.97 18.8057 169.912 19.0282 170.736 19.473C171.56 19.9178 172.201 20.5523 172.659 21.3765C173.13 22.2007 173.366 23.1622 173.366 24.2612ZM169.932 23.3781C169.932 22.8025 169.735 22.3446 169.343 22.0044C168.95 21.6643 168.46 21.4942 167.871 21.4942C167.309 21.4942 166.831 21.6577 166.439 21.9848C166.059 22.3119 165.824 22.7763 165.732 23.3781H169.932ZM179.591 30.0698C178.636 30.0698 177.785 29.9063 177.04 29.5792C176.294 29.2522 175.705 28.8074 175.273 28.2448C174.842 27.6692 174.6 27.0281 174.547 26.3217H177.864C177.903 26.7011 178.08 27.0085 178.394 27.244C178.708 27.4795 179.093 27.5972 179.551 27.5972C179.97 27.5972 180.291 27.5187 180.513 27.3617C180.748 27.1917 180.866 26.9758 180.866 26.7142C180.866 26.4002 180.703 26.1712 180.376 26.0273C180.049 25.8703 179.519 25.7003 178.786 25.5171C178.001 25.3339 177.347 25.1442 176.824 24.948C176.3 24.7387 175.849 24.4182 175.47 23.9864C175.09 23.5416 174.901 22.9464 174.901 22.2007C174.901 21.5727 175.071 21.0036 175.411 20.4934C175.764 19.9701 176.274 19.558 176.941 19.2571C177.622 18.9562 178.426 18.8057 179.355 18.8057C180.729 18.8057 181.808 19.1459 182.593 19.8262C183.391 20.5065 183.849 21.4092 183.967 22.5343H180.866C180.814 22.1549 180.644 21.854 180.356 21.6316C180.081 21.4092 179.715 21.298 179.257 21.298C178.865 21.298 178.564 21.3765 178.354 21.5335C178.145 21.6774 178.04 21.8801 178.04 22.1418C178.04 22.4558 178.204 22.6913 178.531 22.8483C178.871 23.0052 179.394 23.1622 180.101 23.3192C180.912 23.5286 181.573 23.7379 182.083 23.9472C182.593 24.1434 183.038 24.4705 183.417 24.9284C183.81 25.3732 184.013 25.975 184.026 26.7338C184.026 27.3748 183.842 27.9505 183.476 28.4607C183.123 28.9578 182.606 29.3503 181.926 29.6381C181.259 29.9259 180.48 30.0698 179.591 30.0698Z" fill="white"/>
</svg>
