<svg width="186" height="38" viewBox="0 0 186 38" fill="none" xmlns="http://www.w3.org/2000/svg">
<path fill-rule="evenodd" clip-rule="evenodd" d="M48.3692 25.2127C48.3211 23.8399 48.1239 22.4746 47.7953 21.1372C47.7953 21.1322 47.7927 21.1246 47.7902 21.1195C47.727 20.8591 47.6562 20.6013 47.5829 20.3459C47.5804 20.3333 47.5753 20.3232 47.5728 20.3105C47.4995 20.0577 47.4211 19.8049 47.3402 19.5546C47.3351 19.5419 47.3326 19.5268 47.3275 19.5141C47.2441 19.2638 47.1581 19.0161 47.0646 18.7683C47.0595 18.7557 47.0545 18.743 47.0494 18.7279C46.9559 18.4801 46.8598 18.2323 46.7587 17.9896C46.7536 17.9795 46.7511 17.9694 46.7461 17.9593C46.6424 17.7115 46.5337 17.4638 46.4224 17.2211C46.4224 17.216 46.4174 17.2135 46.4174 17.2084C45.9573 16.2098 45.4213 15.2415 44.8221 14.3187C44.817 14.3111 44.812 14.3035 44.8069 14.2959C44.6628 14.076 44.5162 13.8586 44.3645 13.6411C44.3544 13.626 44.3443 13.6108 44.3316 13.5956C44.1825 13.3858 44.0308 13.1785 43.8766 12.9737C43.8614 12.9535 43.8462 12.9358 43.8336 12.9155C43.6794 12.7133 43.5226 12.5161 43.3633 12.3189C43.3456 12.2987 43.3279 12.2759 43.3128 12.2557C43.1535 12.061 42.9892 11.8689 42.8248 11.6818C42.8071 11.6616 42.7869 11.6413 42.7692 11.6186C42.6023 11.429 42.433 11.2444 42.2585 11.0624C42.2408 11.0447 42.2231 11.0245 42.2054 11.0068C42.0284 10.8222 41.8515 10.6402 41.6694 10.4632C41.6543 10.448 41.6416 10.4354 41.6265 10.4227C41.4394 10.2407 41.2498 10.0612 41.0576 9.88677C41.05 9.87919 41.0424 9.8716 41.0323 9.86402C40.6329 9.50502 40.2233 9.15865 39.8011 8.82999C39.791 8.8224 39.7834 8.81482 39.7733 8.80723C39.571 8.65049 39.3637 8.49879 39.1564 8.3471C39.1362 8.33446 39.1185 8.31929 39.0983 8.30412C38.896 8.16002 38.6912 8.02097 38.4839 7.88444C38.4586 7.86675 38.4308 7.84905 38.4055 7.83388C38.2008 7.69988 37.996 7.57348 37.7887 7.44707C37.7583 7.42937 37.728 7.40914 37.6976 7.39145C37.4903 7.26756 37.283 7.14874 37.0707 7.03497C37.0378 7.01727 37.0049 6.99958 36.9721 6.98188C36.7622 6.86811 36.5473 6.75687 36.3324 6.65068C36.2996 6.63552 36.2667 6.61782 36.2338 6.60265C36.0164 6.49647 35.799 6.39534 35.5765 6.29674C35.5462 6.2841 35.5158 6.27146 35.4855 6.25629C35.2605 6.15769 35.0329 6.06414 34.8054 5.97566C34.7801 5.96554 34.7548 5.95543 34.7295 5.94785C34.4944 5.85683 34.2568 5.77087 34.0191 5.68997C34.004 5.68491 33.9863 5.67986 33.9711 5.6748C33.7208 5.59137 33.4705 5.513 33.2177 5.43968C31.5086 4.94668 29.5114 4.85061 27.3953 5.12113C27.3953 5.12113 27.3927 5.12113 27.3902 5.12113C18.3949 6.27146 7.25061 14.0836 6.8916 26.6108H48.3692C48.3869 26.1431 48.3869 25.6779 48.3692 25.2127Z" fill="url(#paint0_linear_18_1182)"/>
<path fill-rule="evenodd" clip-rule="evenodd" d="M28.4694 2.77986C40.7159 4.18554 50.093 14.5916 50.093 27.053C50.093 27.8975 49.4104 28.5801 48.566 28.5801H2.73992C1.8955 28.5801 1.21289 27.8975 1.21289 27.053C1.21289 14.5916 10.59 4.18554 22.8391 2.77986C22.882 1.03288 24.2801 0.0772204 25.6732 0.0443539C27.0485 0.0114874 28.4188 0.881186 28.4694 2.77733V2.77986ZM41.1963 12.3617C27.9435 -1.65712 5.59172 7.53034 4.32257 25.526H46.9833C46.6243 20.4393 44.4905 15.8481 41.1963 12.3617Z" fill="#222222"/>
<path d="M49.279 31.1741H2.02703C1.18367 31.1741 0.5 31.8577 0.5 32.7011C0.5 33.5445 1.18367 34.2281 2.02703 34.2281H49.279C50.1223 34.2281 50.806 33.5445 50.806 32.7011C50.806 31.8577 50.1223 31.1741 49.279 31.1741Z" fill="#222222"/>
<path d="M61.2723 16.1804C62.7244 16.1804 63.9935 16.4682 65.0793 17.0438C66.1652 17.6194 67.0024 18.4306 67.5912 19.4772C68.193 20.5107 68.4939 21.7077 68.4939 23.0683C68.4939 24.4158 68.193 25.6129 67.5912 26.6595C67.0024 27.7061 66.1586 28.5172 65.0597 29.0928C63.9738 29.6685 62.7114 29.9563 61.2723 29.9563H56.1112V16.1804H61.2723ZM61.0564 27.052C62.3254 27.052 63.3132 26.7053 64.0196 26.0119C64.7261 25.3185 65.0793 24.3373 65.0793 23.0683C65.0793 21.7993 64.7261 20.8116 64.0196 20.1051C63.3132 19.3987 62.3254 19.0454 61.0564 19.0454H59.4669V27.052H61.0564ZM69.7019 24.4616C69.7019 23.3365 69.9113 22.3488 70.3299 21.4984C70.7616 20.6481 71.3438 19.9939 72.0764 19.536C72.8091 19.0781 73.6267 18.8492 74.5294 18.8492C75.3013 18.8492 75.975 19.0062 76.5507 19.3202C77.1394 19.6342 77.5907 20.0463 77.9047 20.5565V19.0062H81.2604V29.9563H77.9047V28.406C77.5776 28.9162 77.1198 29.3283 76.531 29.6423C75.9554 29.9563 75.2817 30.1133 74.5098 30.1133C73.6202 30.1133 72.8091 29.8843 72.0764 29.4265C71.3438 28.9555 70.7616 28.2948 70.3299 27.4444C69.9113 26.581 69.7019 25.5867 69.7019 24.4616ZM77.9047 24.4812C77.9047 23.644 77.6692 22.9833 77.1983 22.4992C76.7404 22.0152 76.1778 21.7732 75.5106 21.7732C74.8434 21.7732 74.2743 22.0152 73.8033 22.4992C73.3454 22.9702 73.1165 23.6243 73.1165 24.4616C73.1165 25.2989 73.3454 25.9661 73.8033 26.4633C74.2743 26.9473 74.8434 27.1893 75.5106 27.1893C76.1778 27.1893 76.7404 26.9473 77.1983 26.4633C77.6692 25.9792 77.9047 25.3185 77.9047 24.4812ZM85.3757 17.868C84.787 17.868 84.303 17.6979 83.9236 17.3578C83.5572 17.0046 83.3741 16.5728 83.3741 16.0626C83.3741 15.5393 83.5572 15.1076 83.9236 14.7674C84.303 14.4142 84.787 14.2376 85.3757 14.2376C85.9514 14.2376 86.4223 14.4142 86.7886 14.7674C87.168 15.1076 87.3577 15.5393 87.3577 16.0626C87.3577 16.5728 87.168 17.0046 86.7886 17.3578C86.4223 17.6979 85.9514 17.868 85.3757 17.868ZM87.0438 19.0062V29.9563H83.6881V19.0062H87.0438ZM92.8313 15.4347V29.9563H89.4756V15.4347H92.8313ZM106.449 19.0062L99.5803 35.1566H95.9695L98.4814 29.5834L94.0268 19.0062H97.7749L100.306 25.8549L102.818 19.0062H106.449Z" fill="#222222"/>
<path d="M114.687 29.9563L111.822 24.756H111.018V29.9563H107.662V16.1804H113.294C114.38 16.1804 115.302 16.3701 116.061 16.7495C116.833 17.1288 117.409 17.6521 117.788 18.3194C118.167 18.9735 118.357 19.7061 118.357 20.5172C118.357 21.433 118.095 22.2507 117.572 22.9702C117.062 23.6898 116.303 24.2 115.296 24.5009L118.475 29.9563H114.687ZM111.018 22.3815H113.098C113.713 22.3815 114.171 22.231 114.472 21.9301C114.786 21.6292 114.943 21.2041 114.943 20.6546C114.943 20.1313 114.786 19.7192 114.472 19.4183C114.171 19.1174 113.713 18.9669 113.098 18.9669H111.018V22.3815ZM130.786 24.3046C130.786 24.6186 130.766 24.9457 130.727 25.2858H123.132C123.185 25.9661 123.401 26.4894 123.78 26.8557C124.173 27.209 124.65 27.3856 125.213 27.3856C126.05 27.3856 126.632 27.0323 126.959 26.3259H130.531C130.347 27.0454 130.014 27.693 129.53 28.2686C129.059 28.8443 128.464 29.2956 127.744 29.6227C127.025 29.9498 126.22 30.1133 125.33 30.1133C124.258 30.1133 123.303 29.8843 122.465 29.4265C121.628 28.9686 120.974 28.3144 120.503 27.4641C120.032 26.6137 119.796 25.6194 119.796 24.4812C119.796 23.3431 120.025 22.3488 120.483 21.4984C120.954 20.6481 121.608 19.9939 122.446 19.536C123.283 19.0781 124.244 18.8492 125.33 18.8492C126.39 18.8492 127.332 19.0716 128.156 19.5164C128.98 19.9612 129.621 20.5957 130.079 21.4199C130.55 22.2441 130.786 23.2057 130.786 24.3046ZM127.352 23.4216C127.352 22.8459 127.155 22.388 126.763 22.0479C126.37 21.7077 125.88 21.5377 125.291 21.5377C124.729 21.5377 124.251 21.7012 123.859 22.0283C123.479 22.3553 123.244 22.8198 123.152 23.4216H127.352ZM131.889 24.4812C131.889 23.3431 132.118 22.3488 132.576 21.4984C133.047 20.6481 133.694 19.9939 134.518 19.536C135.356 19.0781 136.311 18.8492 137.384 18.8492C138.757 18.8492 139.902 19.209 140.818 19.9285C141.747 20.6481 142.355 21.662 142.643 22.9702H139.071C138.77 22.1329 138.188 21.7143 137.325 21.7143C136.71 21.7143 136.219 21.9563 135.853 22.4404C135.487 22.9113 135.303 23.5916 135.303 24.4812C135.303 25.3709 135.487 26.0577 135.853 26.5418C136.219 27.0127 136.71 27.2482 137.325 27.2482C138.188 27.2482 138.77 26.8296 139.071 25.9923H142.643C142.355 27.2744 141.747 28.2817 140.818 29.0144C139.889 29.747 138.744 30.1133 137.384 30.1133C136.311 30.1133 135.356 29.8843 134.518 29.4265C133.694 28.9686 133.047 28.3144 132.576 27.4641C132.118 26.6137 131.889 25.6194 131.889 24.4812ZM146.125 17.868C145.537 17.868 145.053 17.6979 144.673 17.3578C144.307 17.0046 144.124 16.5728 144.124 16.0626C144.124 15.5393 144.307 15.1076 144.673 14.7674C145.053 14.4142 145.537 14.2376 146.125 14.2376C146.701 14.2376 147.172 14.4142 147.538 14.7674C147.918 15.1076 148.107 15.5393 148.107 16.0626C148.107 16.5728 147.918 17.0046 147.538 17.3578C147.172 17.6979 146.701 17.868 146.125 17.868ZM147.793 19.0062V29.9563H144.438V19.0062H147.793ZM153.581 20.5565C153.908 20.0463 154.359 19.6342 154.935 19.3202C155.511 19.0062 156.184 18.8492 156.956 18.8492C157.859 18.8492 158.676 19.0781 159.409 19.536C160.142 19.9939 160.717 20.6481 161.136 21.4984C161.568 22.3488 161.784 23.3365 161.784 24.4616C161.784 25.5867 161.568 26.581 161.136 27.4444C160.717 28.2948 160.142 28.9555 159.409 29.4265C158.676 29.8843 157.859 30.1133 156.956 30.1133C156.197 30.1133 155.524 29.9563 154.935 29.6423C154.359 29.3283 153.908 28.9228 153.581 28.4256V35.1762H150.225V19.0062H153.581V20.5565ZM158.369 24.4616C158.369 23.6243 158.134 22.9702 157.663 22.4992C157.205 22.0152 156.636 21.7732 155.955 21.7732C155.288 21.7732 154.719 22.0152 154.248 22.4992C153.79 22.9833 153.561 23.644 153.561 24.4812C153.561 25.3185 153.79 25.9792 154.248 26.4633C154.719 26.9473 155.288 27.1893 155.955 27.1893C156.623 27.1893 157.192 26.9473 157.663 26.4633C158.134 25.9661 158.369 25.2989 158.369 24.4616ZM173.866 24.3046C173.866 24.6186 173.847 24.9457 173.807 25.2858H166.213C166.265 25.9661 166.481 26.4894 166.861 26.8557C167.253 27.209 167.73 27.3856 168.293 27.3856C169.13 27.3856 169.713 27.0323 170.04 26.3259H173.611C173.428 27.0454 173.094 27.693 172.61 28.2686C172.139 28.8443 171.544 29.2956 170.825 29.6227C170.105 29.9498 169.3 30.1133 168.411 30.1133C167.338 30.1133 166.383 29.8843 165.546 29.4265C164.708 28.9686 164.054 28.3144 163.583 27.4641C163.112 26.6137 162.877 25.6194 162.877 24.4812C162.877 23.3431 163.106 22.3488 163.564 21.4984C164.035 20.6481 164.689 19.9939 165.526 19.536C166.363 19.0781 167.325 18.8492 168.411 18.8492C169.47 18.8492 170.412 19.0716 171.237 19.5164C172.061 19.9612 172.702 20.5957 173.16 21.4199C173.631 22.2441 173.866 23.2057 173.866 24.3046ZM170.432 23.4216C170.432 22.8459 170.236 22.388 169.843 22.0479C169.451 21.7077 168.96 21.5377 168.372 21.5377C167.809 21.5377 167.331 21.7012 166.939 22.0283C166.56 22.3553 166.324 22.8198 166.233 23.4216H170.432ZM180.091 30.1133C179.136 30.1133 178.286 29.9498 177.54 29.6227C176.794 29.2956 176.206 28.8508 175.774 28.2883C175.342 27.7126 175.1 27.0716 175.048 26.3651H178.364C178.403 26.7445 178.58 27.052 178.894 27.2875C179.208 27.5229 179.594 27.6407 180.052 27.6407C180.471 27.6407 180.791 27.5622 181.013 27.4052C181.249 27.2351 181.367 27.0193 181.367 26.7576C181.367 26.4436 181.203 26.2147 180.876 26.0708C180.549 25.9138 180.019 25.7437 179.287 25.5606C178.502 25.3774 177.847 25.1877 177.324 24.9915C176.801 24.7821 176.35 24.4616 175.97 24.0299C175.591 23.5851 175.401 22.9898 175.401 22.2441C175.401 21.6162 175.571 21.0471 175.911 20.5369C176.264 20.0136 176.775 19.6015 177.442 19.3006C178.122 18.9997 178.927 18.8492 179.856 18.8492C181.229 18.8492 182.309 19.1894 183.094 19.8696C183.892 20.5499 184.349 21.4526 184.467 22.5777H181.367C181.314 22.1983 181.144 21.8974 180.856 21.675C180.582 21.4526 180.215 21.3414 179.758 21.3414C179.365 21.3414 179.064 21.4199 178.855 21.5769C178.645 21.7208 178.541 21.9236 178.541 22.1853C178.541 22.4992 178.704 22.7347 179.031 22.8917C179.372 23.0487 179.895 23.2057 180.601 23.3627C181.412 23.572 182.073 23.7813 182.583 23.9907C183.094 24.1869 183.538 24.514 183.918 24.9718C184.31 25.4166 184.513 26.0184 184.526 26.7772C184.526 27.4183 184.343 27.9939 183.977 28.5041C183.623 29.0013 183.107 29.3937 182.426 29.6816C181.759 29.9694 180.981 30.1133 180.091 30.1133Z" fill="#51BA85"/>
<defs>
<linearGradient id="paint0_linear_18_1182" x1="18.0005" y1="22.0435" x2="42.0005" y2="7.54346" gradientUnits="userSpaceOnUse">
<stop stop-color="#51BA85"/>
<stop offset="1" stop-color="#23E0B6"/>
</linearGradient>
</defs>
</svg>
